<svg id="f82431d3-8127-424d-a60c-8e35994ecc25" data-name="Layer 1" xmlns="http://www.w3.org/2000/svg" viewBox="0 0 256 77.6"><path d="M427.3,319.41c-1.42-.24-2.16-1.57-2.22-4V286.55h-6.27v18.12a12.16,12.16,0,0,1-3.4,8.76,10.2,10.2,0,0,1-7.47,2.94c-6.13,0-10.58-5.12-10.58-12.08v-13.5a4.24,4.24,0,0,0-4.24-4.24h-2v18.12A18.37,18.37,0,0,0,396.48,318a16.59,16.59,0,0,0,11.66,4.64h.51c4-.11,7-1.45,10.31-4.58a5,5,0,0,0,1.27,2.53,4.83,4.83,0,0,0,4.08,1.52,4.28,4.28,0,0,0,3.34-1.9l.4-.66Z" transform="translate(-172.05 -261.77)" style="fill:#0072b1"/><path d="M399.84,278.93a4.11,4.11,0,1,0-4.11-4.11,4.1,4.1,0,0,0,4.11,4.11" transform="translate(-172.05 -261.77)" style="fill:#0072b1"/><path d="M399.84,268.14a6.68,6.68,0,1,1-6.68,6.68,6.68,6.68,0,0,1,6.68-6.68m8.21,11.51v3.54a.15.15,0,0,1-.27.09l-1.41-1.68a10.07,10.07,0,0,0,1.68-2m8.22-11.51a6.68,6.68,0,1,1-6.68,6.68,6.68,6.68,0,0,1,6.68-6.68m-16.43,16.21a9.37,9.37,0,0,0,5.6-1.84l2.12,2.59a.6.6,0,0,0,.49.21.63.63,0,0,0,.5-.21l2.11-2.59a9.37,9.37,0,0,0,5.6,1.84A9.53,9.53,0,0,0,422.91,268l2.4-2.83a3,3,0,0,0,.51-2c0-1-.12-1.59-.87-1.29,0,0-11.44,4.91-16.9,4.91s-16.9-4.91-16.9-4.91c-.75-.3-.86.32-.86,1.29a3,3,0,0,0,.5,2l2.4,2.83a9.53,9.53,0,0,0,6.65,16.35" transform="translate(-172.05 -261.77)" style="fill:#0072b1"/><path d="M416.27,278.93a4.11,4.11,0,1,0-4.11-4.11,4.11,4.11,0,0,0,4.11,4.11" transform="translate(-172.05 -261.77)" style="fill:#0072b1"/><path d="M248.76,316.69h0a11.65,11.65,0,0,1-8.31-3.45,12.36,12.36,0,0,1,0-17.25,11.84,11.84,0,0,1,8.39-3.4h.09a11.77,11.77,0,0,1,11.57,12.17,11.61,11.61,0,0,1-11.73,11.93m.19-30.11h-.07a18.12,18.12,0,0,0-13,30.84,18,18,0,0,0,12.78,5.3h.06a18.07,18.07,0,0,0,.23-36.14" transform="translate(-172.05 -261.77)" style="fill:#222"/><path d="M317.23,280.58H311v6h-2.83v6H311v16.06c.28,6.09,2.91,10.37,7.81,12.73a12.67,12.67,0,0,0,5.58,1.3q.6,0,1.23-.06l.47,0v-6l-.53,0a9.44,9.44,0,0,1-2.7-.25c-3.32-.93-5.54-4.16-5.65-8.24V292.56h9.1v-6h-9.1Z" transform="translate(-172.05 -261.77)" style="fill:#222"/><path d="M221.27,287.85c-4.9,2.36-7.53,6.64-7.81,12.73v22.13h6.21V301.14c.1-4.09,2.32-7.33,5.65-8.26a10.55,10.55,0,0,1,3.41-.22l1.07.07v-5.89l-.86-.13a12.77,12.77,0,0,0-7.67,1.14" transform="translate(-172.05 -261.77)" style="fill:#222"/><path d="M377.39,287.79c-4.9,2.35-7.52,6.64-7.81,12.73v22.12h6.21V301.07c.11-4.09,2.32-7.33,5.65-8.25a10.8,10.8,0,0,1,3.41-.23l1.07.07v-5.89l-.86-.13a12.7,12.7,0,0,0-7.67,1.15" transform="translate(-172.05 -261.77)" style="fill:#222"/><path d="M288.48,292.68a11.56,11.56,0,0,1,9.3,4.69l.16.2h7.17l-.37-.75a18,18,0,1,0,0,15.72l.37-.75h-7.24l-.16.2a11.59,11.59,0,0,1-9.2,4.55,11.93,11.93,0,0,1,0-23.86" transform="translate(-172.05 -261.77)" style="fill:#222"/><path d="M202.6,304.69a12.09,12.09,0,1,1-12.09-12.09,12.11,12.11,0,0,1,12.09,12.09m-12.09-18.11a18,18,0,0,0-12.51,5h-5.95v47.76h6.34V318.13a17.92,17.92,0,0,0,12.12,4.66,18.11,18.11,0,1,0,0-36.21" transform="translate(-172.05 -261.77)" style="fill:#222"/><path d="M358.9,304.61a12.05,12.05,0,1,1-12-12,12.06,12.06,0,0,1,12,12m-12-18.06a18.07,18.07,0,1,0,18.07,18.06,18.09,18.09,0,0,0-18.07-18.06" transform="translate(-172.05 -261.77)" style="fill:#222"/><path d="M240.77,280.13V271.3h.62v8.29h4.07v.54Z" transform="translate(-172.05 -261.77)" style="fill:#222;stroke:#222;stroke-miterlimit:10;stroke-width:0.75px"/><path d="M249.47,280.13V271.3h5.46v.53h-4.84v3.34h4.16v.54h-4.16v3.88h5v.54Z" transform="translate(-172.05 -261.77)" style="fill:#222;stroke:#222;stroke-miterlimit:10;stroke-width:0.75px"/><path d="M257.38,280.13l3.11-8.83h.61l3.11,8.83h-.64l-1-3H259l-1.05,3Zm2.41-5.2-.56,1.65h3.13l-.56-1.65-.51-1.51c-.16-.49-.32-1-.47-1.55h-.05c-.15.55-.31,1.06-.47,1.55Z" transform="translate(-172.05 -261.77)" style="fill:#222;stroke:#222;stroke-miterlimit:10;stroke-width:0.75px"/><path d="M266.83,280.13V271.3h2.53a5,5,0,0,1,1.2.13,2.45,2.45,0,0,1,.91.4,1.9,1.9,0,0,1,.58.73,2.46,2.46,0,0,1,.21,1.07,2.2,2.2,0,0,1-.61,1.66A2.81,2.81,0,0,1,270,276l2.44,4.1h-.71l-2.4-4.06h-1.87v4.06Zm.62-4.57h1.75a2.93,2.93,0,0,0,1.81-.48,1.71,1.71,0,0,0,.62-1.45,1.54,1.54,0,0,0-.63-1.4,3.33,3.33,0,0,0-1.8-.41h-1.75Z" transform="translate(-172.05 -261.77)" style="fill:#222;stroke:#222;stroke-miterlimit:10;stroke-width:0.75px"/><path d="M275.51,280.13V271.3h.64l3.73,6.23,1,1.76h.05c0-.43,0-.86-.05-1.29s0-.86,0-1.29V271.3h.59v8.83h-.64l-3.73-6.23-1-1.76H276c0,.43,0,.85.05,1.26s0,.82,0,1.25v5.48Z" transform="translate(-172.05 -261.77)" style="fill:#222;stroke:#222;stroke-miterlimit:10;stroke-width:0.75px"/><path d="M287,280.13V271.3h.62v8.83Z" transform="translate(-172.05 -261.77)" style="fill:#222;stroke:#222;stroke-miterlimit:10;stroke-width:0.75px"/><path d="M293.19,280.13V271.3h.64l3.73,6.23,1,1.76h.05c0-.43,0-.86-.05-1.29s0-.86,0-1.29V271.3h.59v8.83h-.64l-3.73-6.23-1-1.76h-.05c0,.43,0,.85.05,1.26s0,.82,0,1.25v5.48Z" transform="translate(-172.05 -261.77)" style="fill:#222;stroke:#222;stroke-miterlimit:10;stroke-width:0.75px"/><path d="M305.58,280.29A3.78,3.78,0,0,1,304,280a3.32,3.32,0,0,1-1.19-.92,4.27,4.27,0,0,1-.77-1.45,6.25,6.25,0,0,1-.27-1.91,6,6,0,0,1,.28-1.89,4.18,4.18,0,0,1,.79-1.44,3.47,3.47,0,0,1,1.23-.91,3.94,3.94,0,0,1,1.6-.31,3.47,3.47,0,0,1,.81.09,3.23,3.23,0,0,1,.66.25,3.44,3.44,0,0,1,.53.34,3.83,3.83,0,0,1,.41.38l-.36.41a3.39,3.39,0,0,0-.84-.64,2.42,2.42,0,0,0-1.2-.27,3.17,3.17,0,0,0-1.37.28,3,3,0,0,0-1,.8,3.61,3.61,0,0,0-.65,1.25,5.37,5.37,0,0,0-.23,1.66,6.1,6.1,0,0,0,.21,1.67,3.69,3.69,0,0,0,.63,1.27,2.72,2.72,0,0,0,1,.81,3.11,3.11,0,0,0,1.35.29,3.48,3.48,0,0,0,1.13-.18,2.07,2.07,0,0,0,.85-.49v-2.75h-2.12v-.52h2.71v3.5a3.29,3.29,0,0,1-1.08.72A3.83,3.83,0,0,1,305.58,280.29Z" transform="translate(-172.05 -261.77)" style="fill:#222;stroke:#222;stroke-miterlimit:10;stroke-width:0.75px"/><path d="M172.05,280v-9.74h2.76l1.47,4c.09.27.17.55.25.84s.17.58.26.87h.06c.09-.29.17-.58.25-.87s.17-.57.26-.84l1.4-4h2.76V280h-2.34v-2.87c0-.25,0-.53,0-.83s.05-.6.08-.92.07-.62.11-.92.07-.57.1-.81h-.06l-.81,2.34-1.19,3.22h-1.38l-1.2-3.22-.78-2.34H174c0,.24.06.51.1.81s.08.61.11.92.06.62.08.92,0,.58,0,.83V280Z" transform="translate(-172.05 -261.77)" style="fill:#222"/><path d="M183.44,280v-9.74h6.3v2.16H186v1.53h3.18v2.16H186v1.74h3.87V280Z" transform="translate(-172.05 -261.77)" style="fill:#222"/><path d="M190.84,280l3-9.74h3.12l3,9.74h-2.73l-.48-2.06H194l-.48,2.06Zm3.75-4.73-.17.67h1.8l-.16-.67q-.18-.71-.36-1.53t-.36-1.56h-.06l-.34,1.57C194.83,274.27,194.71,274.78,194.59,275.25Z" transform="translate(-172.05 -261.77)" style="fill:#222"/><path d="M215,280.16a3.73,3.73,0,0,1-3.05-1.19,5.63,5.63,0,0,1-1-3.69v-5h2.58v5.34a3.42,3.42,0,0,0,.35,1.83A1.24,1.24,0,0,0,215,278a1.28,1.28,0,0,0,1.13-.54,3.4,3.4,0,0,0,.36-1.83v-5.34H219v5a5.75,5.75,0,0,1-1,3.69A3.65,3.65,0,0,1,215,280.16Z" transform="translate(-172.05 -261.77)" style="fill:#222"/><path d="M220.87,280v-9.74h3.69a7.17,7.17,0,0,1,1.49.15,3.5,3.5,0,0,1,1.25.51,2.57,2.57,0,0,1,.84,1,3.26,3.26,0,0,1,.32,1.52,3.21,3.21,0,0,1-.43,1.74,3,3,0,0,1-1.15,1.08L229,280h-2.88l-1.68-3.26h-1V280Zm2.58-5.3h.93q1.56,0,1.56-1.29a.92.92,0,0,0-.4-.87,2.26,2.26,0,0,0-1.16-.24h-.93Z" transform="translate(-172.05 -261.77)" style="fill:#222"/><path d="M230,280v-9.74h6.29v2.16h-3.71v1.53h3.17v2.16h-3.17v1.74h3.86V280Z" transform="translate(-172.05 -261.77)" style="fill:#222"/><polygon points="29.28 16.73 33.27 10.7 29.28 10.7 29.28 16.73" style="fill:#408b87"/><polygon points="36.72 16.13 32.7 16.13 36.72 10.11 36.72 16.13" style="fill:#408b87"/><path d="M193.81,270.24" transform="translate(-172.05 -261.77)" style="fill:#222"/><rect x="29.28" y="17.76" width="7.43" height="1.28" style="fill:#222"/><rect x="29.28" y="7.8" width="7.43" height="1.28" style="fill:#222"/></svg>