<?xml version="1.0" encoding="utf-8"?>
<svg viewBox="-4.975 11.998 500 500" xmlns="http://www.w3.org/2000/svg">
  <path d="M 208.984 172.719 C 205.864 172.729 202.87 171.486 200.674 169.269 C 195.998 164.47 195.998 156.819 200.674 152.019 C 202.91 149.819 205.927 148.597 209.064 148.619 L 209.154 148.619 C 215.735 148.727 220.949 154.211 220.724 160.789 C 220.906 167.373 215.58 172.79 208.994 172.719 M 209.184 142.609 L 209.114 142.609 C 195.165 142.536 186.368 157.59 193.279 169.706 C 194.058 171.072 195.011 172.33 196.114 173.449 C 199.498 176.848 204.098 178.756 208.894 178.749 L 208.954 178.749 C 222.864 178.838 231.654 163.835 224.776 151.744 C 221.583 146.133 215.64 142.65 209.184 142.609" style="fill:#222"/>
  <path d="M 277.454 136.609 L 271.224 136.609 L 271.224 142.609 L 268.394 142.609 L 268.394 148.609 L 271.224 148.609 L 271.224 164.669 C 271.504 170.759 274.134 175.039 279.034 177.399 C 280.77 178.253 282.679 178.698 284.614 178.699 C 285.014 178.699 285.424 178.679 285.844 178.639 L 286.314 178.639 L 286.314 172.639 L 285.784 172.639 C 284.877 172.686 283.967 172.602 283.084 172.389 C 279.764 171.459 277.544 168.229 277.434 164.149 L 277.434 148.589 L 286.534 148.589 L 286.534 142.589 L 277.434 142.589 L 277.454 136.609 Z" style="fill:#222"/>
  <path d="M 181.494 143.879 C 176.594 146.239 173.964 150.519 173.684 156.609 L 173.684 178.739 L 179.894 178.739 L 179.894 157.169 C 179.994 153.079 182.214 149.839 185.544 148.909 C 186.661 148.651 187.813 148.577 188.954 148.689 L 190.024 148.759 L 190.024 142.869 L 189.164 142.739 C 186.551 142.315 183.871 142.714 181.494 143.879" style="fill:#222"/>
  <path d="M 337.614 143.819 C 332.714 146.169 330.094 150.459 329.804 156.549 L 329.804 178.669 L 336.014 178.669 L 336.014 157.099 C 336.124 153.009 338.334 149.769 341.664 148.849 C 342.781 148.592 343.932 148.515 345.074 148.619 L 346.144 148.689 L 346.144 142.799 L 345.284 142.669 C 342.67 142.244 339.988 142.646 337.614 143.819" style="fill:#222"/>
  <path d="M 248.704 148.709 C 252.373 148.708 255.824 150.449 258.004 153.399 L 258.164 153.599 L 265.334 153.599 L 264.964 152.849 C 258.913 140.384 241.637 139.143 233.867 150.616 C 226.097 162.088 233.66 177.67 247.481 178.663 C 254.825 179.191 261.749 175.193 264.964 168.569 L 265.334 167.819 L 258.094 167.819 L 257.934 168.019 C 255.743 170.885 252.342 172.567 248.734 172.569 C 239.55 172.569 233.81 162.628 238.402 154.674 C 240.533 150.983 244.472 148.709 248.734 148.709" style="fill:#222"/>
  <path d="M 162.824 160.719 C 162.824 170.026 152.749 175.843 144.689 171.19 C 136.629 166.536 136.629 154.903 144.689 150.249 C 146.527 149.188 148.612 148.629 150.734 148.629 C 157.407 148.64 162.813 154.047 162.824 160.719 M 150.734 142.609 C 146.074 142.594 141.59 144.386 138.224 147.609 L 132.274 147.609 L 132.274 195.369 L 138.614 195.369 L 138.614 174.159 C 141.929 177.173 146.253 178.836 150.734 178.819 C 164.671 179.147 173.737 164.264 167.052 152.03 C 163.803 146.085 157.507 142.45 150.734 142.609" style="fill:#222"/>
  <path d="M 319.124 160.639 C 319.162 169.915 309.145 175.754 301.092 171.15 C 293.04 166.545 292.992 154.95 301.006 150.279 C 302.863 149.196 304.975 148.63 307.124 148.639 C 313.738 148.672 319.091 154.026 319.124 160.639 M 307.124 142.579 C 293.214 142.579 284.52 157.638 291.475 169.684 C 298.43 181.731 315.818 181.731 322.773 169.684 C 324.361 166.934 325.196 163.815 325.194 160.639 C 325.177 150.668 317.095 142.59 307.124 142.579" style="fill:#222"/>
  <path style="fill:#222"/>
</svg>